<svg id="Layer_1" data-name="Layer 1" xmlns="http://www.w3.org/2000/svg" viewBox="0 0 95 78.56"><defs><style>.cls-1{fill:#18b4bb;}</style></defs><title>ns-shield-teal</title><path class="cls-1" d="M96.66,30.84C95.08,27.21,90.79,23.11,79.5,23V13.21A2.49,2.49,0,0,0,77,10.72H19.54a2.49,2.49,0,0,0-2.49,2.49V46.45c-1.81,1.42-3.5,2.86-5,4.31C1.7,60.55,1.61,67.39,3.35,71.4c2.23,5.14,8.52,7.83,17.81,7.83a63,63,0,0,0,9.62-.81l1,.67,15.16,9.79a2.49,2.49,0,0,0,2.7,0l15.16-9.79a32.19,32.19,0,0,0,14-20.25l.71-.49C93.66,48.36,99.91,38.33,96.66,30.84ZM24.06,17.73H72.5v5.66c-9.25,1-20,4.07-30.76,8.73A124.85,124.85,0,0,0,24.06,41.5ZM9.77,68.6c-.9-2.07.48-6.52,7.07-12.76l.4-.37a32.19,32.19,0,0,0,6.84,16.65C15.59,72.67,10.77,70.9,9.77,68.6ZM61,73.2,48.28,81.41,35.57,73.21A25.09,25.09,0,0,1,24.06,52.05V49.95A112.51,112.51,0,0,1,44.53,38.54a104.28,104.28,0,0,1,28-8.11V52.05A25.09,25.09,0,0,1,61,73.2ZM79.5,49.59V30c6.71.08,9.95,1.83,10.73,3.63C91.44,36.41,88.46,42.39,79.5,49.59Z" transform="translate(-2.5 -10.72)"/></svg>