<svg id="visual" viewBox="0 0 900 900" width="900" height="900" xmlns="http://www.w3.org/2000/svg" xmlns:xlink="http://www.w3.org/1999/xlink" version="1.1"><rect x="0" y="0" width="900" height="900" fill="#93dd9d"></rect><g transform="translate(519.237243884161 490.55982900220965)"><path d="M135.5 -214.2C174.7 -158.1 204.8 -117.2 208.6 -75C212.4 -32.8 189.9 10.8 167.2 46.2C144.5 81.6 121.6 108.7 93.7 152.8C65.8 196.9 32.9 258 -19.4 284.7C-71.7 311.4 -143.4 303.7 -214.4 273.6C-285.4 243.5 -355.8 191 -346.7 133C-337.5 74.9 -249 11.4 -222.1 -72.4C-195.2 -156.1 -229.8 -260.1 -203.1 -320.2C-176.3 -380.4 -88.2 -396.7 -20 -369.2C48.2 -341.7 96.4 -270.3 135.5 -214.2" fill="#235e2b"></path></g></svg>