<svg id="visual" viewBox="0 0 900 900" width="900" height="900" xmlns="http://www.w3.org/2000/svg" xmlns:xlink="http://www.w3.org/1999/xlink" version="1.1"><rect x="0" y="0" width="900" height="900" fill="#fbdb8c"></rect><defs><linearGradient id="grad1_0" x1="0%" y1="0%" x2="100%" y2="100%"><stop offset="30%" stop-color="#ffff00" stop-opacity="1"></stop><stop offset="70%" stop-color="#ffff00" stop-opacity="1"></stop></linearGradient></defs><defs><linearGradient id="grad1_1" x1="0%" y1="0%" x2="100%" y2="100%"><stop offset="30%" stop-color="#ffff00" stop-opacity="1"></stop><stop offset="70%" stop-color="#fff92e" stop-opacity="1"></stop></linearGradient></defs><defs><linearGradient id="grad1_2" x1="0%" y1="0%" x2="100%" y2="100%"><stop offset="30%" stop-color="#fff344" stop-opacity="1"></stop><stop offset="70%" stop-color="#fff92e" stop-opacity="1"></stop></linearGradient></defs><defs><linearGradient id="grad1_3" x1="0%" y1="0%" x2="100%" y2="100%"><stop offset="30%" stop-color="#fff344" stop-opacity="1"></stop><stop offset="70%" stop-color="#ffee56" stop-opacity="1"></stop></linearGradient></defs><defs><linearGradient id="grad1_4" x1="0%" y1="0%" x2="100%" y2="100%"><stop offset="30%" stop-color="#ffe965" stop-opacity="1"></stop><stop offset="70%" stop-color="#ffee56" stop-opacity="1"></stop></linearGradient></defs><defs><linearGradient id="grad1_5" x1="0%" y1="0%" x2="100%" y2="100%"><stop offset="30%" stop-color="#ffe965" stop-opacity="1"></stop><stop offset="70%" stop-color="#ffe473" stop-opacity="1"></stop></linearGradient></defs><defs><linearGradient id="grad1_6" x1="0%" y1="0%" x2="100%" y2="100%"><stop offset="30%" stop-color="#ffdf80" stop-opacity="1"></stop><stop offset="70%" stop-color="#ffe473" stop-opacity="1"></stop></linearGradient></defs><defs><linearGradient id="grad1_7" x1="0%" y1="0%" x2="100%" y2="100%"><stop offset="30%" stop-color="#ffdf80" stop-opacity="1"></stop><stop offset="70%" stop-color="#fbdb8c" stop-opacity="1"></stop></linearGradient></defs><defs><linearGradient id="grad2_0" x1="0%" y1="0%" x2="100%" y2="100%"><stop offset="30%" stop-color="#ffff00" stop-opacity="1"></stop><stop offset="70%" stop-color="#ffff00" stop-opacity="1"></stop></linearGradient></defs><defs><linearGradient id="grad2_1" x1="0%" y1="0%" x2="100%" y2="100%"><stop offset="30%" stop-color="#fff92e" stop-opacity="1"></stop><stop offset="70%" stop-color="#ffff00" stop-opacity="1"></stop></linearGradient></defs><defs><linearGradient id="grad2_2" x1="0%" y1="0%" x2="100%" y2="100%"><stop offset="30%" stop-color="#fff92e" stop-opacity="1"></stop><stop offset="70%" stop-color="#fff344" stop-opacity="1"></stop></linearGradient></defs><defs><linearGradient id="grad2_3" x1="0%" y1="0%" x2="100%" y2="100%"><stop offset="30%" stop-color="#ffee56" stop-opacity="1"></stop><stop offset="70%" stop-color="#fff344" stop-opacity="1"></stop></linearGradient></defs><defs><linearGradient id="grad2_4" x1="0%" y1="0%" x2="100%" y2="100%"><stop offset="30%" stop-color="#ffee56" stop-opacity="1"></stop><stop offset="70%" stop-color="#ffe965" stop-opacity="1"></stop></linearGradient></defs><defs><linearGradient id="grad2_5" x1="0%" y1="0%" x2="100%" y2="100%"><stop offset="30%" stop-color="#ffe473" stop-opacity="1"></stop><stop offset="70%" stop-color="#ffe965" stop-opacity="1"></stop></linearGradient></defs><defs><linearGradient id="grad2_6" x1="0%" y1="0%" x2="100%" y2="100%"><stop offset="30%" stop-color="#ffe473" stop-opacity="1"></stop><stop offset="70%" stop-color="#ffdf80" stop-opacity="1"></stop></linearGradient></defs><defs><linearGradient id="grad2_7" x1="0%" y1="0%" x2="100%" y2="100%"><stop offset="30%" stop-color="#fbdb8c" stop-opacity="1"></stop><stop offset="70%" stop-color="#ffdf80" stop-opacity="1"></stop></linearGradient></defs><g transform="translate(900, 0)"><path d="M0 636.4C-127.2 628.9 -254.3 621.4 -318.2 551.1C-382.1 480.9 -382.7 347.8 -425.2 245.5C-467.7 143.2 -552.1 71.6 -636.4 0L0 0Z" fill="#fddd86"></path><path d="M0 556.8C-111.3 550.3 -222.5 543.7 -278.4 482.2C-334.3 420.8 -334.9 304.3 -372.1 214.8C-409.2 125.3 -483 62.6 -556.8 0L0 0Z" fill="#ffe179"></path><path d="M0 477.3C-95.4 471.7 -190.7 466.1 -238.6 413.4C-286.6 360.6 -287 260.9 -318.9 184.1C-350.8 107.4 -414 53.7 -477.3 0L0 0Z" fill="#ffe66c"></path><path d="M0 397.7C-79.5 393.1 -158.9 388.4 -198.9 344.5C-238.8 300.5 -239.2 217.4 -265.8 153.4C-292.3 89.5 -345 44.7 -397.7 0L0 0Z" fill="#ffeb5d"></path><path d="M0 318.2C-63.6 314.5 -127.2 310.7 -159.1 275.6C-191 240.4 -191.4 173.9 -212.6 122.8C-233.9 71.6 -276 35.8 -318.2 0L0 0Z" fill="#fff04d"></path><path d="M0 238.6C-47.7 235.8 -95.4 233 -119.3 206.7C-143.3 180.3 -143.5 130.4 -159.5 92.1C-175.4 53.7 -207 26.8 -238.6 0L0 0Z" fill="#fff63a"></path><path d="M0 159.1C-31.8 157.2 -63.6 155.4 -79.5 137.8C-95.5 120.2 -95.7 87 -106.3 61.4C-116.9 35.8 -138 17.9 -159.1 0L0 0Z" fill="#fffc1f"></path><path d="M0 79.5C-15.9 78.6 -31.8 77.7 -39.8 68.9C-47.8 60.1 -47.8 43.5 -53.2 30.7C-58.5 17.9 -69 8.9 -79.5 0L0 0Z" fill="#ffff00"></path></g><g transform="translate(0, 900)"><path d="M0 -636.4C130.2 -630.6 260.3 -624.9 318.2 -551.1C376.1 -477.4 361.7 -335.7 402.7 -232.5C443.7 -129.3 540 -64.7 636.4 0L0 0Z" fill="#fddd86"></path><path d="M0 -556.8C113.9 -551.8 227.8 -546.8 278.4 -482.2C329.1 -417.7 316.5 -293.7 352.4 -203.4C388.2 -113.2 472.5 -56.6 556.8 0L0 0Z" fill="#ffe179"></path><path d="M0 -477.3C97.6 -473 195.2 -468.7 238.6 -413.4C282.1 -358 271.3 -251.8 302 -174.4C332.8 -97 405 -48.5 477.3 0L0 0Z" fill="#ffe66c"></path><path d="M0 -397.7C81.3 -394.1 162.7 -390.5 198.9 -344.5C235.1 -298.4 226.1 -209.8 251.7 -145.3C277.3 -80.8 337.5 -40.4 397.7 0L0 0Z" fill="#ffeb5d"></path><path d="M0 -318.2C65.1 -315.3 130.2 -312.4 159.1 -275.6C188 -238.7 180.9 -167.8 201.4 -116.3C221.8 -64.7 270 -32.3 318.2 0L0 0Z" fill="#fff04d"></path><path d="M0 -238.6C48.8 -236.5 97.6 -234.3 119.3 -206.7C141 -179 135.6 -125.9 151 -87.2C166.4 -48.5 202.5 -24.2 238.6 0L0 0Z" fill="#fff63a"></path><path d="M0 -159.1C32.5 -157.7 65.1 -156.2 79.5 -137.8C94 -119.3 90.4 -83.9 100.7 -58.1C110.9 -32.3 135 -16.2 159.1 0L0 0Z" fill="#fffc1f"></path><path d="M0 -79.5C16.3 -78.8 32.5 -78.1 39.8 -68.9C47 -59.7 45.2 -42 50.3 -29.1C55.5 -16.2 67.5 -8.1 79.5 0L0 0Z" fill="#ffff00"></path></g></svg>