<svg id="visual" viewBox="0 0 960 540" width="960" height="540" xmlns="http://www.w3.org/2000/svg" xmlns:xlink="http://www.w3.org/1999/xlink" version="1.1"><rect x="0" y="0" width="960" height="540" fill="#5980c3"></rect><path d="M0 116L20 118.3C40 120.7 80 125.3 120 124.3C160 123.3 200 116.7 240 117.3C280 118 320 126 360 127.8C400 129.7 440 125.3 480 122.7C520 120 560 119 600 121C640 123 680 128 720 128.8C760 129.7 800 126.3 840 124.7C880 123 920 123 940 123L960 123L960 0L940 0C920 0 880 0 840 0C800 0 760 0 720 0C680 0 640 0 600 0C560 0 520 0 480 0C440 0 400 0 360 0C320 0 280 0 240 0C200 0 160 0 120 0C80 0 40 0 20 0L0 0Z" fill="#3a5496"></path><path d="M0 89L20 92C40 95 80 101 120 101.2C160 101.3 200 95.7 240 96.3C280 97 320 104 360 106.2C400 108.3 440 105.7 480 100.8C520 96 560 89 600 89C640 89 680 96 720 101.5C760 107 800 111 840 108.2C880 105.3 920 95.7 940 90.8L960 86L960 0L940 0C920 0 880 0 840 0C800 0 760 0 720 0C680 0 640 0 600 0C560 0 520 0 480 0C440 0 400 0 360 0C320 0 280 0 240 0C200 0 160 0 120 0C80 0 40 0 20 0L0 0Z" fill="#344b86"></path><path d="M0 97L20 94.3C40 91.7 80 86.3 120 84.5C160 82.7 200 84.3 240 85C280 85.7 320 85.3 360 88.2C400 91 440 97 480 99.8C520 102.7 560 102.3 600 97.7C640 93 680 84 720 81.8C760 79.7 800 84.3 840 83.8C880 83.3 920 77.7 940 74.8L960 72L960 0L940 0C920 0 880 0 840 0C800 0 760 0 720 0C680 0 640 0 600 0C560 0 520 0 480 0C440 0 400 0 360 0C320 0 280 0 240 0C200 0 160 0 120 0C80 0 40 0 20 0L0 0Z" fill="#2e4376"></path><path d="M0 84L20 84.3C40 84.7 80 85.3 120 82.3C160 79.3 200 72.7 240 71.5C280 70.3 320 74.7 360 74C400 73.3 440 67.7 480 63.7C520 59.7 560 57.3 600 55.5C640 53.7 680 52.3 720 54.8C760 57.3 800 63.7 840 69C880 74.3 920 78.7 940 80.8L960 83L960 0L940 0C920 0 880 0 840 0C800 0 760 0 720 0C680 0 640 0 600 0C560 0 520 0 480 0C440 0 400 0 360 0C320 0 280 0 240 0C200 0 160 0 120 0C80 0 40 0 20 0L0 0Z" fill="#283a67"></path><path d="M0 67L20 67.2C40 67.3 80 67.7 120 66C160 64.3 200 60.7 240 55.5C280 50.3 320 43.7 360 41.8C400 40 440 43 480 42.8C520 42.7 560 39.3 600 38.8C640 38.3 680 40.7 720 41C760 41.3 800 39.7 840 42.8C880 46 920 54 940 58L960 62L960 0L940 0C920 0 880 0 840 0C800 0 760 0 720 0C680 0 640 0 600 0C560 0 520 0 480 0C440 0 400 0 360 0C320 0 280 0 240 0C200 0 160 0 120 0C80 0 40 0 20 0L0 0Z" fill="#223258"></path><path d="M0 35L20 35.5C40 36 80 37 120 35.2C160 33.3 200 28.7 240 26C280 23.3 320 22.7 360 25.5C400 28.3 440 34.7 480 36.2C520 37.7 560 34.3 600 31.8C640 29.3 680 27.7 720 28.2C760 28.7 800 31.3 840 35.3C880 39.3 920 44.7 940 47.3L960 50L960 0L940 0C920 0 880 0 840 0C800 0 760 0 720 0C680 0 640 0 600 0C560 0 520 0 480 0C440 0 400 0 360 0C320 0 280 0 240 0C200 0 160 0 120 0C80 0 40 0 20 0L0 0Z" fill="#1d2a4a"></path><path d="M0 30L20 29C40 28 80 26 120 24.2C160 22.3 200 20.7 240 21.3C280 22 320 25 360 26.3C400 27.7 440 27.3 480 26.5C520 25.7 560 24.3 600 23.2C640 22 680 21 720 19.7C760 18.3 800 16.7 840 17.8C880 19 920 23 940 25L960 27L960 0L940 0C920 0 880 0 840 0C800 0 760 0 720 0C680 0 640 0 600 0C560 0 520 0 480 0C440 0 400 0 360 0C320 0 280 0 240 0C200 0 160 0 120 0C80 0 40 0 20 0L0 0Z" fill="#18223c"></path></svg>