<svg id="visual" viewBox="0 0 960 540" width="960" height="540" xmlns="http://www.w3.org/2000/svg" xmlns:xlink="http://www.w3.org/1999/xlink" version="1.1"><rect x="0" y="0" width="960" height="540" fill="#18223c"></rect><path d="M212 0L208.8 11.3C205.7 22.7 199.3 45.3 196.2 67.8C193 90.3 193 112.7 190.8 135.2C188.7 157.7 184.3 180.3 193.3 202.8C202.3 225.3 224.7 247.7 230 270.2C235.3 292.7 223.7 315.3 221.5 337.8C219.3 360.3 226.7 382.7 231 405.2C235.3 427.7 236.7 450.3 232.8 472.8C229 495.3 220 517.7 215.5 528.8L211 540L0 540L0 528.8C0 517.7 0 495.3 0 472.8C0 450.3 0 427.7 0 405.2C0 382.7 0 360.3 0 337.8C0 315.3 0 292.7 0 270.2C0 247.7 0 225.3 0 202.8C0 180.3 0 157.7 0 135.2C0 112.7 0 90.3 0 67.8C0 45.3 0 22.7 0 11.3L0 0Z" fill="#2c4060"></path><path d="M213 0L210 11.3C207 22.7 201 45.3 197.2 67.8C193.3 90.3 191.7 112.7 183.7 135.2C175.7 157.7 161.3 180.3 166.5 202.8C171.7 225.3 196.3 247.7 202.5 270.2C208.7 292.7 196.3 315.3 182.7 337.8C169 360.3 154 382.7 146.7 405.2C139.3 427.7 139.7 450.3 151.8 472.8C164 495.3 188 517.7 200 528.8L212 540L0 540L0 528.8C0 517.7 0 495.3 0 472.8C0 450.3 0 427.7 0 405.2C0 382.7 0 360.3 0 337.8C0 315.3 0 292.7 0 270.2C0 247.7 0 225.3 0 202.8C0 180.3 0 157.7 0 135.2C0 112.7 0 90.3 0 67.8C0 45.3 0 22.7 0 11.3L0 0Z" fill="#334a70"></path><path d="M137 0L144.2 11.3C151.3 22.7 165.7 45.3 163.7 67.8C161.7 90.3 143.3 112.7 142.5 135.2C141.7 157.7 158.3 180.3 164.3 202.8C170.3 225.3 165.7 247.7 160.3 270.2C155 292.7 149 315.3 153 337.8C157 360.3 171 382.7 167.8 405.2C164.7 427.7 144.3 450.3 135.7 472.8C127 495.3 130 517.7 131.5 528.8L133 540L0 540L0 528.8C0 517.7 0 495.3 0 472.8C0 450.3 0 427.7 0 405.2C0 382.7 0 360.3 0 337.8C0 315.3 0 292.7 0 270.2C0 247.7 0 225.3 0 202.8C0 180.3 0 157.7 0 135.2C0 112.7 0 90.3 0 67.8C0 45.3 0 22.7 0 11.3L0 0Z" fill="#3a5480"></path><path d="M99 0L100.2 11.3C101.3 22.7 103.7 45.3 105.8 67.8C108 90.3 110 112.7 115.5 135.2C121 157.7 130 180.3 131.5 202.8C133 225.3 127 247.7 127 270.2C127 292.7 133 315.3 132 337.8C131 360.3 123 382.7 117.7 405.2C112.3 427.7 109.7 450.3 108 472.8C106.3 495.3 105.7 517.7 105.3 528.8L105 540L0 540L0 528.8C0 517.7 0 495.3 0 472.8C0 450.3 0 427.7 0 405.2C0 382.7 0 360.3 0 337.8C0 315.3 0 292.7 0 270.2C0 247.7 0 225.3 0 202.8C0 180.3 0 157.7 0 135.2C0 112.7 0 90.3 0 67.8C0 45.3 0 22.7 0 11.3L0 0Z" fill="#415f90"></path><path d="M90 0L90.5 11.3C91 22.7 92 45.3 88.7 67.8C85.3 90.3 77.7 112.7 81 135.2C84.3 157.7 98.7 180.3 106.5 202.8C114.3 225.3 115.7 247.7 110.2 270.2C104.7 292.7 92.3 315.3 86.7 337.8C81 360.3 82 382.7 79.7 405.2C77.3 427.7 71.7 450.3 72 472.8C72.3 495.3 78.7 517.7 81.8 528.8L85 540L0 540L0 528.8C0 517.7 0 495.3 0 472.8C0 450.3 0 427.7 0 405.2C0 382.7 0 360.3 0 337.8C0 315.3 0 292.7 0 270.2C0 247.7 0 225.3 0 202.8C0 180.3 0 157.7 0 135.2C0 112.7 0 90.3 0 67.8C0 45.3 0 22.7 0 11.3L0 0Z" fill="#496aa1"></path><path d="M54 0L53.7 11.3C53.3 22.7 52.7 45.3 53.8 67.8C55 90.3 58 112.7 62.3 135.2C66.7 157.7 72.3 180.3 74 202.8C75.7 225.3 73.3 247.7 68.3 270.2C63.3 292.7 55.7 315.3 54.2 337.8C52.7 360.3 57.3 382.7 63.8 405.2C70.3 427.7 78.7 450.3 78.7 472.8C78.7 495.3 70.3 517.7 66.2 528.8L62 540L0 540L0 528.8C0 517.7 0 495.3 0 472.8C0 450.3 0 427.7 0 405.2C0 382.7 0 360.3 0 337.8C0 315.3 0 292.7 0 270.2C0 247.7 0 225.3 0 202.8C0 180.3 0 157.7 0 135.2C0 112.7 0 90.3 0 67.8C0 45.3 0 22.7 0 11.3L0 0Z" fill="#5175b2"></path><path d="M32 0L35.3 11.3C38.7 22.7 45.3 45.3 45.3 67.8C45.3 90.3 38.7 112.7 36.8 135.2C35 157.7 38 180.3 36.3 202.8C34.7 225.3 28.3 247.7 28.3 270.2C28.3 292.7 34.7 315.3 34 337.8C33.3 360.3 25.7 382.7 22.8 405.2C20 427.7 22 450.3 28.3 472.8C34.7 495.3 45.3 517.7 50.7 528.8L56 540L0 540L0 528.8C0 517.7 0 495.3 0 472.8C0 450.3 0 427.7 0 405.2C0 382.7 0 360.3 0 337.8C0 315.3 0 292.7 0 270.2C0 247.7 0 225.3 0 202.8C0 180.3 0 157.7 0 135.2C0 112.7 0 90.3 0 67.8C0 45.3 0 22.7 0 11.3L0 0Z" fill="#5980c3"></path></svg>