<svg id="visual" viewBox="0 0 900 900" width="900" height="900" xmlns="http://www.w3.org/2000/svg" xmlns:xlink="http://www.w3.org/1999/xlink" version="1.1"><g stroke-width="1" stroke-linejoin="bevel"><path d="M398 466L375 421L323 428Z" fill="#6a433f" stroke="#6a433f"></path><path d="M323 428L301 458L398 466Z" fill="#6a433f" stroke="#6a433f"></path><path d="M301 458L306 584L398 466Z" fill="#6a433f" stroke="#6a433f"></path><path d="M466 291L374 315L375 421Z" fill="#e05850" stroke="#e05850"></path><path d="M375 421L374 315L323 428Z" fill="#cf564e" stroke="#cf564e"></path><path d="M172 371L188 493L301 458Z" fill="#e05850" stroke="#e05850"></path><path d="M172 371L301 458L323 428Z" fill="#ad5049" stroke="#ad5049"></path><path d="M301 458L188 493L306 584Z" fill="#be534b" stroke="#be534b"></path><path d="M306 584L426 623L398 466Z" fill="#ad5049" stroke="#ad5049"></path><path d="M398 466L528 420L375 421Z" fill="#6a433f" stroke="#6a433f"></path><path d="M526 537L528 420L398 466Z" fill="#8b4a44" stroke="#8b4a44"></path><path d="M374 315L306 283L323 428Z" fill="#7a4741" stroke="#7a4741"></path><path d="M426 623L526 537L398 466Z" fill="#e05850" stroke="#e05850"></path><path d="M306 283L172 371L323 428Z" fill="#7a4741" stroke="#7a4741"></path><path d="M528 420L466 291L375 421Z" fill="#8b4a44" stroke="#8b4a44"></path><path d="M374 315L339 179L306 283Z" fill="#483b3a" stroke="#483b3a"></path><path d="M426 623L496 608L526 537Z" fill="#8b4a44" stroke="#8b4a44"></path><path d="M303 671L400 664L306 584Z" fill="#8b4a44" stroke="#8b4a44"></path><path d="M306 584L400 664L426 623Z" fill="#483b3a" stroke="#483b3a"></path><path d="M426 623L520 727L496 608Z" fill="#ad5049" stroke="#ad5049"></path><path d="M526 537L563 459L528 420Z" fill="#8b4a44" stroke="#8b4a44"></path><path d="M528 420L635 295L466 291Z" fill="#ad5049" stroke="#ad5049"></path><path d="M607 407L563 459L671 530Z" fill="#593f3c" stroke="#593f3c"></path><path d="M210 636L303 671L306 584Z" fill="#593f3c" stroke="#593f3c"></path><path d="M306 283L170 334L172 371Z" fill="#483b3a" stroke="#483b3a"></path><path d="M188 493L210 636L306 584Z" fill="#9c4d47" stroke="#9c4d47"></path><path d="M61 435L117 527L188 493Z" fill="#6a433f" stroke="#6a433f"></path><path d="M188 493L134 588L210 636Z" fill="#cf564e" stroke="#cf564e"></path><path d="M61 435L188 493L172 371Z" fill="#be534b" stroke="#be534b"></path><path d="M117 527L134 588L188 493Z" fill="#373737" stroke="#373737"></path><path d="M671 530L563 459L526 537Z" fill="#593f3c" stroke="#593f3c"></path><path d="M563 459L607 407L528 420Z" fill="#593f3c" stroke="#593f3c"></path><path d="M439 172L374 315L466 291Z" fill="#e05850" stroke="#e05850"></path><path d="M439 172L339 179L374 315Z" fill="#6a433f" stroke="#6a433f"></path><path d="M306 283L169 232L170 334Z" fill="#be534b" stroke="#be534b"></path><path d="M339 179L169 232L306 283Z" fill="#be534b" stroke="#be534b"></path><path d="M87 307L61 435L172 371Z" fill="#7a4741" stroke="#7a4741"></path><path d="M87 307L172 371L170 334Z" fill="#7a4741" stroke="#7a4741"></path><path d="M0 637L64 672L134 588Z" fill="#593f3c" stroke="#593f3c"></path><path d="M500 180L439 172L466 291Z" fill="#593f3c" stroke="#593f3c"></path><path d="M181 738L309 760L303 671Z" fill="#8b4a44" stroke="#8b4a44"></path><path d="M303 671L309 760L400 664Z" fill="#e05850" stroke="#e05850"></path><path d="M520 727L616 624L496 608Z" fill="#6a433f" stroke="#6a433f"></path><path d="M181 738L303 671L210 636Z" fill="#483b3a" stroke="#483b3a"></path><path d="M169 232L87 307L170 334Z" fill="#9c4d47" stroke="#9c4d47"></path><path d="M520 727L426 623L400 664Z" fill="#ad5049" stroke="#ad5049"></path><path d="M496 608L616 624L526 537Z" fill="#483b3a" stroke="#483b3a"></path><path d="M458 814L520 727L400 664Z" fill="#7a4741" stroke="#7a4741"></path><path d="M635 295L500 180L466 291Z" fill="#e05850" stroke="#e05850"></path><path d="M616 624L671 530L526 537Z" fill="#cf564e" stroke="#cf564e"></path><path d="M607 407L635 295L528 420Z" fill="#483b3a" stroke="#483b3a"></path><path d="M708 419L635 295L607 407Z" fill="#cf564e" stroke="#cf564e"></path><path d="M64 672L210 636L134 588Z" fill="#7a4741" stroke="#7a4741"></path><path d="M64 672L181 738L210 636Z" fill="#9c4d47" stroke="#9c4d47"></path><path d="M168 121L141 187L169 232Z" fill="#8b4a44" stroke="#8b4a44"></path><path d="M169 232L141 187L87 307Z" fill="#ad5049" stroke="#ad5049"></path><path d="M289 117L169 232L339 179Z" fill="#373737" stroke="#373737"></path><path d="M358 86L339 179L439 172Z" fill="#8b4a44" stroke="#8b4a44"></path><path d="M358 86L289 117L339 179Z" fill="#cf564e" stroke="#cf564e"></path><path d="M0 415L0 482L61 435Z" fill="#373737" stroke="#373737"></path><path d="M61 435L0 482L117 527Z" fill="#593f3c" stroke="#593f3c"></path><path d="M0 415L61 435L0 331Z" fill="#e05850" stroke="#e05850"></path><path d="M671 530L708 419L607 407Z" fill="#be534b" stroke="#be534b"></path><path d="M0 331L61 435L87 307Z" fill="#7a4741" stroke="#7a4741"></path><path d="M458 814L583 736L520 727Z" fill="#593f3c" stroke="#593f3c"></path><path d="M520 727L583 736L616 624Z" fill="#be534b" stroke="#be534b"></path><path d="M616 624L719 619L671 530Z" fill="#e05850" stroke="#e05850"></path><path d="M0 637L134 588L117 527Z" fill="#593f3c" stroke="#593f3c"></path><path d="M276 900L362 820L309 760Z" fill="#be534b" stroke="#be534b"></path><path d="M309 760L362 820L400 664Z" fill="#7a4741" stroke="#7a4741"></path><path d="M635 295L564 161L500 180Z" fill="#373737" stroke="#373737"></path><path d="M524 63L358 86L439 172Z" fill="#ad5049" stroke="#ad5049"></path><path d="M694 275L564 161L635 295Z" fill="#e05850" stroke="#e05850"></path><path d="M362 820L458 814L400 664Z" fill="#8b4a44" stroke="#8b4a44"></path><path d="M524 63L439 172L500 180Z" fill="#ad5049" stroke="#ad5049"></path><path d="M0 238L0 331L87 307Z" fill="#ad5049" stroke="#ad5049"></path><path d="M289 117L168 121L169 232Z" fill="#cf564e" stroke="#cf564e"></path><path d="M141 187L0 238L87 307Z" fill="#7a4741" stroke="#7a4741"></path><path d="M221 0L168 121L289 117Z" fill="#be534b" stroke="#be534b"></path><path d="M64 672L129 775L181 738Z" fill="#be534b" stroke="#be534b"></path><path d="M181 738L165 818L309 760Z" fill="#7a4741" stroke="#7a4741"></path><path d="M708 419L694 275L635 295Z" fill="#8b4a44" stroke="#8b4a44"></path><path d="M0 482L0 637L117 527Z" fill="#593f3c" stroke="#593f3c"></path><path d="M64 672L0 711L129 775Z" fill="#373737" stroke="#373737"></path><path d="M709 667L719 619L616 624Z" fill="#373737" stroke="#373737"></path><path d="M671 530L759 499L708 419Z" fill="#cf564e" stroke="#cf564e"></path><path d="M122 900L165 818L129 775Z" fill="#e05850" stroke="#e05850"></path><path d="M129 775L165 818L181 738Z" fill="#373737" stroke="#373737"></path><path d="M719 619L759 499L671 530Z" fill="#593f3c" stroke="#593f3c"></path><path d="M708 419L801 302L694 275Z" fill="#9c4d47" stroke="#9c4d47"></path><path d="M583 736L709 667L616 624Z" fill="#6a433f" stroke="#6a433f"></path><path d="M900 486L813 426L759 499Z" fill="#373737" stroke="#373737"></path><path d="M704 785L709 667L583 736Z" fill="#593f3c" stroke="#593f3c"></path><path d="M70 135L0 238L141 187Z" fill="#483b3a" stroke="#483b3a"></path><path d="M71 0L70 135L168 121Z" fill="#e05850" stroke="#e05850"></path><path d="M168 121L70 135L141 187Z" fill="#e05850" stroke="#e05850"></path><path d="M573 78L524 63L564 161Z" fill="#be534b" stroke="#be534b"></path><path d="M564 161L524 63L500 180Z" fill="#6a433f" stroke="#6a433f"></path><path d="M0 637L0 711L64 672Z" fill="#9c4d47" stroke="#9c4d47"></path><path d="M694 89L573 78L564 161Z" fill="#9c4d47" stroke="#9c4d47"></path><path d="M236 900L276 900L309 760Z" fill="#373737" stroke="#373737"></path><path d="M362 820L440 900L458 814Z" fill="#6a433f" stroke="#6a433f"></path><path d="M236 900L309 760L165 818Z" fill="#7a4741" stroke="#7a4741"></path><path d="M276 900L440 900L362 820Z" fill="#ad5049" stroke="#ad5049"></path><path d="M583 900L641 806L583 736Z" fill="#7a4741" stroke="#7a4741"></path><path d="M583 900L583 736L458 814Z" fill="#cf564e" stroke="#cf564e"></path><path d="M440 900L458 900L458 814Z" fill="#593f3c" stroke="#593f3c"></path><path d="M122 900L236 900L165 818Z" fill="#be534b" stroke="#be534b"></path><path d="M759 499L813 426L708 419Z" fill="#373737" stroke="#373737"></path><path d="M694 275L720 175L564 161Z" fill="#be534b" stroke="#be534b"></path><path d="M826 585L759 499L719 619Z" fill="#7a4741" stroke="#7a4741"></path><path d="M524 63L403 0L358 86Z" fill="#ad5049" stroke="#ad5049"></path><path d="M358 86L289 0L289 117Z" fill="#593f3c" stroke="#593f3c"></path><path d="M534 0L403 0L524 63Z" fill="#ad5049" stroke="#ad5049"></path><path d="M760 189L720 175L694 275Z" fill="#593f3c" stroke="#593f3c"></path><path d="M403 0L289 0L358 86Z" fill="#9c4d47" stroke="#9c4d47"></path><path d="M813 426L801 302L708 419Z" fill="#e05850" stroke="#e05850"></path><path d="M773 818L704 785L730 900Z" fill="#6a433f" stroke="#6a433f"></path><path d="M641 806L704 785L583 736Z" fill="#483b3a" stroke="#483b3a"></path><path d="M830 681L826 585L719 619Z" fill="#e05850" stroke="#e05850"></path><path d="M289 0L221 0L289 117Z" fill="#cf564e" stroke="#cf564e"></path><path d="M830 681L719 619L709 667Z" fill="#be534b" stroke="#be534b"></path><path d="M801 302L760 189L694 275Z" fill="#373737" stroke="#373737"></path><path d="M638 0L534 0L573 78Z" fill="#6a433f" stroke="#6a433f"></path><path d="M0 711L0 800L129 775Z" fill="#cf564e" stroke="#cf564e"></path><path d="M694 89L564 161L720 175Z" fill="#7a4741" stroke="#7a4741"></path><path d="M573 78L534 0L524 63Z" fill="#e05850" stroke="#e05850"></path><path d="M71 0L0 114L70 135Z" fill="#373737" stroke="#373737"></path><path d="M70 135L0 114L0 238Z" fill="#483b3a" stroke="#483b3a"></path><path d="M458 900L583 900L458 814Z" fill="#be534b" stroke="#be534b"></path><path d="M0 800L122 900L129 775Z" fill="#be534b" stroke="#be534b"></path><path d="M798 108L694 89L720 175Z" fill="#483b3a" stroke="#483b3a"></path><path d="M704 785L830 681L709 667Z" fill="#6a433f" stroke="#6a433f"></path><path d="M773 818L830 681L704 785Z" fill="#593f3c" stroke="#593f3c"></path><path d="M221 0L71 0L168 121Z" fill="#483b3a" stroke="#483b3a"></path><path d="M707 0L638 0L694 89Z" fill="#be534b" stroke="#be534b"></path><path d="M694 89L638 0L573 78Z" fill="#be534b" stroke="#be534b"></path><path d="M900 612L900 486L826 585Z" fill="#9c4d47" stroke="#9c4d47"></path><path d="M826 585L900 486L759 499Z" fill="#6a433f" stroke="#6a433f"></path><path d="M813 426L900 304L801 302Z" fill="#7a4741" stroke="#7a4741"></path><path d="M900 230L798 108L760 189Z" fill="#373737" stroke="#373737"></path><path d="M900 486L900 417L813 426Z" fill="#6a433f" stroke="#6a433f"></path><path d="M730 900L704 785L641 806Z" fill="#e05850" stroke="#e05850"></path><path d="M0 800L0 900L122 900Z" fill="#ad5049" stroke="#ad5049"></path><path d="M900 230L760 189L801 302Z" fill="#ad5049" stroke="#ad5049"></path><path d="M760 189L798 108L720 175Z" fill="#593f3c" stroke="#593f3c"></path><path d="M830 681L900 612L826 585Z" fill="#9c4d47" stroke="#9c4d47"></path><path d="M900 669L900 612L830 681Z" fill="#9c4d47" stroke="#9c4d47"></path><path d="M900 417L900 304L813 426Z" fill="#9c4d47" stroke="#9c4d47"></path><path d="M583 900L730 900L641 806Z" fill="#373737" stroke="#373737"></path><path d="M900 789L900 669L830 681Z" fill="#373737" stroke="#373737"></path><path d="M794 0L707 0L694 89Z" fill="#7a4741" stroke="#7a4741"></path><path d="M71 0L0 0L0 114Z" fill="#7a4741" stroke="#7a4741"></path><path d="M900 789L830 681L773 818Z" fill="#593f3c" stroke="#593f3c"></path><path d="M900 304L900 230L801 302Z" fill="#7a4741" stroke="#7a4741"></path><path d="M900 83L794 0L798 108Z" fill="#be534b" stroke="#be534b"></path><path d="M798 108L794 0L694 89Z" fill="#7a4741" stroke="#7a4741"></path><path d="M838 900L900 789L773 818Z" fill="#9c4d47" stroke="#9c4d47"></path><path d="M730 900L838 900L773 818Z" fill="#7a4741" stroke="#7a4741"></path><path d="M900 230L900 83L798 108Z" fill="#ad5049" stroke="#ad5049"></path><path d="M838 900L900 900L900 789Z" fill="#cf564e" stroke="#cf564e"></path><path d="M900 83L900 0L794 0Z" fill="#7a4741" stroke="#7a4741"></path></g></svg>