<svg id="visual" viewBox="0 0 900 450" width="900" height="450" xmlns="http://www.w3.org/2000/svg" xmlns:xlink="http://www.w3.org/1999/xlink" version="1.1"><path d="M0 69L11.5 62.2C23 55.3 46 41.7 69 42.3C92 43 115 58 138.2 62.5C161.3 67 184.7 61 207.8 61C231 61 254 67 277 67C300 67 323 61 346 62.5C369 64 392 73 415.2 72.3C438.3 71.7 461.7 61.3 484.8 62.8C508 64.3 531 77.7 554 79.2C577 80.7 600 70.3 623 66.7C646 63 669 66 692.2 68.2C715.3 70.3 738.7 71.7 761.8 70.2C785 68.7 808 64.3 831 61.3C854 58.3 877 56.7 888.5 55.8L900 55L900 0L888.5 0C877 0 854 0 831 0C808 0 785 0 761.8 0C738.7 0 715.3 0 692.2 0C669 0 646 0 623 0C600 0 577 0 554 0C531 0 508 0 484.8 0C461.7 0 438.3 0 415.2 0C392 0 369 0 346 0C323 0 300 0 277 0C254 0 231 0 207.8 0C184.7 0 161.3 0 138.2 0C115 0 92 0 69 0C46 0 23 0 11.5 0L0 0Z" fill="#18223c"></path><path d="M0 100L11.5 92.5C23 85 46 70 69 73C92 76 115 97 138.2 100.8C161.3 104.7 184.7 91.3 207.8 95.2C231 99 254 120 277 121.5C300 123 323 105 346 101.2C369 97.3 392 107.7 415.2 112.2C438.3 116.7 461.7 115.3 484.8 119.2C508 123 531 132 554 134.2C577 136.3 600 131.7 623 127.2C646 122.7 669 118.3 692.2 119.8C715.3 121.3 738.7 128.7 761.8 130.8C785 133 808 130 831 123.3C854 116.7 877 106.3 888.5 101.2L900 96L900 53L888.5 53.8C877 54.7 854 56.3 831 59.3C808 62.3 785 66.7 761.8 68.2C738.7 69.7 715.3 68.3 692.2 66.2C669 64 646 61 623 64.7C600 68.3 577 78.7 554 77.2C531 75.7 508 62.3 484.8 60.8C461.7 59.3 438.3 69.7 415.2 70.3C392 71 369 62 346 60.5C323 59 300 65 277 65C254 65 231 59 207.8 59C184.7 59 161.3 65 138.2 60.5C115 56 92 41 69 40.3C46 39.7 23 53.3 11.5 60.2L0 67Z" fill="#233050"></path><path d="M0 136L11.5 130C23 124 46 112 69 112C92 112 115 124 138.2 127.8C161.3 131.7 184.7 127.3 207.8 137.2C231 147 254 171 277 173.2C300 175.3 323 155.7 346 146.7C369 137.7 392 139.3 415.2 140.8C438.3 142.3 461.7 143.7 484.8 147.3C508 151 531 157 554 163C577 169 600 175 623 172.8C646 170.7 669 160.3 692.2 158.2C715.3 156 738.7 162 761.8 167.2C785 172.3 808 176.7 831 170.7C854 164.7 877 148.3 888.5 140.2L900 132L900 94L888.5 99.2C877 104.3 854 114.7 831 121.3C808 128 785 131 761.8 128.8C738.7 126.7 715.3 119.3 692.2 117.8C669 116.3 646 120.7 623 125.2C600 129.7 577 134.3 554 132.2C531 130 508 121 484.8 117.2C461.7 113.3 438.3 114.7 415.2 110.2C392 105.7 369 95.3 346 99.2C323 103 300 121 277 119.5C254 118 231 97 207.8 93.2C184.7 89.3 161.3 102.7 138.2 98.8C115 95 92 74 69 71C46 68 23 83 11.5 90.5L0 98Z" fill="#2e3f66"></path><path d="M0 186L11.5 181.5C23 177 46 168 69 169.5C92 171 115 183 138.2 184.5C161.3 186 184.7 177 207.8 181.5C231 186 254 204 277 208.5C300 213 323 204 346 197.2C369 190.3 392 185.7 415.2 180.3C438.3 175 461.7 169 484.8 168.3C508 167.7 531 172.3 554 179.2C577 186 600 195 623 193.5C646 192 669 180 692.2 176.2C715.3 172.3 738.7 176.7 761.8 184.2C785 191.7 808 202.3 831 203.2C854 204 877 195 888.5 190.5L900 186L900 130L888.5 138.2C877 146.3 854 162.7 831 168.7C808 174.7 785 170.3 761.8 165.2C738.7 160 715.3 154 692.2 156.2C669 158.3 646 168.7 623 170.8C600 173 577 167 554 161C531 155 508 149 484.8 145.3C461.7 141.7 438.3 140.3 415.2 138.8C392 137.3 369 135.7 346 144.7C323 153.7 300 173.3 277 171.2C254 169 231 145 207.8 135.2C184.7 125.3 161.3 129.7 138.2 125.8C115 122 92 110 69 110C46 110 23 122 11.5 128L0 134Z" fill="#394e7c"></path><path d="M0 262L11.5 263.5C23 265 46 268 69 263.5C92 259 115 247 138.2 237.3C161.3 227.7 184.7 220.3 207.8 229.3C231 238.3 254 263.7 277 273.3C300 283 323 277 346 274C369 271 392 271 415.2 262.8C438.3 254.7 461.7 238.3 484.8 227.2C508 216 531 210 554 222.7C577 235.3 600 266.7 623 275.7C646 284.7 669 271.3 692.2 265.3C715.3 259.3 738.7 260.7 761.8 256.8C785 253 808 244 831 241C854 238 877 241 888.5 242.5L900 244L900 184L888.5 188.5C877 193 854 202 831 201.2C808 200.3 785 189.7 761.8 182.2C738.7 174.7 715.3 170.3 692.2 174.2C669 178 646 190 623 191.5C600 193 577 184 554 177.2C531 170.3 508 165.7 484.8 166.3C461.7 167 438.3 173 415.2 178.3C392 183.7 369 188.3 346 195.2C323 202 300 211 277 206.5C254 202 231 184 207.8 179.5C184.7 175 161.3 184 138.2 182.5C115 181 92 169 69 167.5C46 166 23 175 11.5 179.5L0 184Z" fill="#445e93"></path><path d="M0 352L11.5 359.5C23 367 46 382 69 391.8C92 401.7 115 406.3 138.2 398.2C161.3 390 184.7 369 207.8 355.5C231 342 254 336 277 341.2C300 346.3 323 362.7 346 373.8C369 385 392 391 415.2 379C438.3 367 461.7 337 484.8 316C508 295 531 283 554 295.8C577 308.7 600 346.3 623 359.2C646 372 669 360 692.2 355.5C715.3 351 738.7 354 761.8 360.7C785 367.3 808 377.7 831 367.8C854 358 877 328 888.5 313L900 298L900 242L888.5 240.5C877 239 854 236 831 239C808 242 785 251 761.8 254.8C738.7 258.7 715.3 257.3 692.2 263.3C669 269.3 646 282.7 623 273.7C600 264.7 577 233.3 554 220.7C531 208 508 214 484.8 225.2C461.7 236.3 438.3 252.7 415.2 260.8C392 269 369 269 346 272C323 275 300 281 277 271.3C254 261.7 231 236.3 207.8 227.3C184.7 218.3 161.3 225.7 138.2 235.3C115 245 92 257 69 261.5C46 266 23 263 11.5 261.5L0 260Z" fill="#4f6fab"></path><path d="M0 451L11.5 451C23 451 46 451 69 451C92 451 115 451 138.2 451C161.3 451 184.7 451 207.8 451C231 451 254 451 277 451C300 451 323 451 346 451C369 451 392 451 415.2 451C438.3 451 461.7 451 484.8 451C508 451 531 451 554 451C577 451 600 451 623 451C646 451 669 451 692.2 451C715.3 451 738.7 451 761.8 451C785 451 808 451 831 451C854 451 877 451 888.5 451L900 451L900 296L888.5 311C877 326 854 356 831 365.8C808 375.7 785 365.3 761.8 358.7C738.7 352 715.3 349 692.2 353.5C669 358 646 370 623 357.2C600 344.3 577 306.7 554 293.8C531 281 508 293 484.8 314C461.7 335 438.3 365 415.2 377C392 389 369 383 346 371.8C323 360.7 300 344.3 277 339.2C254 334 231 340 207.8 353.5C184.7 367 161.3 388 138.2 396.2C115 404.3 92 399.7 69 389.8C46 380 23 365 11.5 357.5L0 350Z" fill="#5980c3"></path></svg>