<svg id="visual" viewBox="0 0 900 900" width="900" height="900" xmlns="http://www.w3.org/2000/svg" xmlns:xlink="http://www.w3.org/1999/xlink" version="1.1"><path d="M0 136L225 136L450 100L675 100L900 100L900 0L675 0L450 0L225 0L0 0Z" fill="#040404"></path><path d="M0 190L225 181L450 145L675 145L900 154L900 98L675 98L450 98L225 134L0 134Z" fill="#4a170c"></path><path d="M0 262L225 253L450 208L675 217L900 226L900 152L675 143L450 143L225 179L0 188Z" fill="#8e1b0c"></path><path d="M0 352L225 352L450 289L675 298L900 298L900 224L675 215L450 206L225 251L0 260Z" fill="#d90e06"></path><path d="M0 406L225 406L450 343L675 361L900 361L900 296L675 296L450 287L225 350L0 350Z" fill="#e90404"></path><path d="M0 622L225 559L450 559L675 541L900 532L900 359L675 359L450 341L225 404L0 404Z" fill="#d90e06"></path><path d="M0 667L225 604L450 613L675 586L900 577L900 530L675 539L450 557L225 557L0 620Z" fill="#8e1b0c"></path><path d="M0 730L225 667L450 694L675 649L900 667L900 575L675 584L450 611L225 602L0 665Z" fill="#4a170c"></path><path d="M0 901L225 901L450 901L675 901L900 901L900 665L675 647L450 692L225 665L0 728Z" fill="#040404"></path></svg>