<svg id="visual" viewBox="0 0 960 540" width="960" height="540" xmlns="http://www.w3.org/2000/svg" xmlns:xlink="http://www.w3.org/1999/xlink" version="1.1"><rect x="0" y="0" width="960" height="540" fill="#5980c3"></rect><path d="M750 540L753.2 528.8C756.3 517.7 762.7 495.3 765.8 472.8C769 450.3 769 427.7 771.2 405.2C773.3 382.7 777.7 360.3 768.7 337.8C759.7 315.3 737.3 292.7 732 270.2C726.7 247.7 738.3 225.3 740.5 202.8C742.7 180.3 735.3 157.7 731 135.2C726.7 112.7 725.3 90.3 729.2 67.8C733 45.3 742 22.7 746.5 11.3L751 0L960 0L960 11.3C960 22.7 960 45.3 960 67.8C960 90.3 960 112.7 960 135.2C960 157.7 960 180.3 960 202.8C960 225.3 960 247.7 960 270.2C960 292.7 960 315.3 960 337.8C960 360.3 960 382.7 960 405.2C960 427.7 960 450.3 960 472.8C960 495.3 960 517.7 960 528.8L960 540Z" fill="#3a5496"></path><path d="M749 540L752 528.8C755 517.7 761 495.3 764.8 472.8C768.7 450.3 770.3 427.7 778.3 405.2C786.3 382.7 800.7 360.3 795.5 337.8C790.3 315.3 765.7 292.7 759.5 270.2C753.3 247.7 765.7 225.3 779.3 202.8C793 180.3 808 157.7 815.3 135.2C822.7 112.7 822.3 90.3 810.2 67.8C798 45.3 774 22.7 762 11.3L750 0L960 0L960 11.3C960 22.7 960 45.3 960 67.8C960 90.3 960 112.7 960 135.2C960 157.7 960 180.3 960 202.8C960 225.3 960 247.7 960 270.2C960 292.7 960 315.3 960 337.8C960 360.3 960 382.7 960 405.2C960 427.7 960 450.3 960 472.8C960 495.3 960 517.7 960 528.8L960 540Z" fill="#344b86"></path><path d="M825 540L817.8 528.8C810.7 517.7 796.3 495.3 798.3 472.8C800.3 450.3 818.7 427.7 819.5 405.2C820.3 382.7 803.7 360.3 797.7 337.8C791.7 315.3 796.3 292.7 801.7 270.2C807 247.7 813 225.3 809 202.8C805 180.3 791 157.7 794.2 135.2C797.3 112.7 817.7 90.3 826.3 67.8C835 45.3 832 22.7 830.5 11.3L829 0L960 0L960 11.3C960 22.7 960 45.3 960 67.8C960 90.3 960 112.7 960 135.2C960 157.7 960 180.3 960 202.8C960 225.3 960 247.7 960 270.2C960 292.7 960 315.3 960 337.8C960 360.3 960 382.7 960 405.2C960 427.7 960 450.3 960 472.8C960 495.3 960 517.7 960 528.8L960 540Z" fill="#2e4376"></path><path d="M863 540L861.8 528.8C860.7 517.7 858.3 495.3 856.2 472.8C854 450.3 852 427.7 846.5 405.2C841 382.7 832 360.3 830.5 337.8C829 315.3 835 292.7 835 270.2C835 247.7 829 225.3 830 202.8C831 180.3 839 157.7 844.3 135.2C849.7 112.7 852.3 90.3 854 67.8C855.7 45.3 856.3 22.7 856.7 11.3L857 0L960 0L960 11.3C960 22.7 960 45.3 960 67.8C960 90.3 960 112.7 960 135.2C960 157.7 960 180.3 960 202.8C960 225.3 960 247.7 960 270.2C960 292.7 960 315.3 960 337.8C960 360.3 960 382.7 960 405.2C960 427.7 960 450.3 960 472.8C960 495.3 960 517.7 960 528.8L960 540Z" fill="#283a67"></path><path d="M872 540L871.5 528.8C871 517.7 870 495.3 873.3 472.8C876.7 450.3 884.3 427.7 881 405.2C877.7 382.7 863.3 360.3 855.5 337.8C847.7 315.3 846.3 292.7 851.8 270.2C857.3 247.7 869.7 225.3 875.3 202.8C881 180.3 880 157.7 882.3 135.2C884.7 112.7 890.3 90.3 890 67.8C889.7 45.3 883.3 22.7 880.2 11.3L877 0L960 0L960 11.3C960 22.7 960 45.3 960 67.8C960 90.3 960 112.7 960 135.2C960 157.7 960 180.3 960 202.8C960 225.3 960 247.7 960 270.2C960 292.7 960 315.3 960 337.8C960 360.3 960 382.7 960 405.2C960 427.7 960 450.3 960 472.8C960 495.3 960 517.7 960 528.8L960 540Z" fill="#223258"></path><path d="M908 540L908.3 528.8C908.7 517.7 909.3 495.3 908.2 472.8C907 450.3 904 427.7 899.7 405.2C895.3 382.7 889.7 360.3 888 337.8C886.3 315.3 888.7 292.7 893.7 270.2C898.7 247.7 906.3 225.3 907.8 202.8C909.3 180.3 904.7 157.7 898.2 135.2C891.7 112.7 883.3 90.3 883.3 67.8C883.3 45.3 891.7 22.7 895.8 11.3L900 0L960 0L960 11.3C960 22.7 960 45.3 960 67.8C960 90.3 960 112.7 960 135.2C960 157.7 960 180.3 960 202.8C960 225.3 960 247.7 960 270.2C960 292.7 960 315.3 960 337.8C960 360.3 960 382.7 960 405.2C960 427.7 960 450.3 960 472.8C960 495.3 960 517.7 960 528.8L960 540Z" fill="#1d2a4a"></path><path d="M930 540L926.7 528.8C923.3 517.7 916.7 495.3 916.7 472.8C916.7 450.3 923.3 427.7 925.2 405.2C927 382.7 924 360.3 925.7 337.8C927.3 315.3 933.7 292.7 933.7 270.2C933.7 247.7 927.3 225.3 928 202.8C928.7 180.3 936.3 157.7 939.2 135.2C942 112.7 940 90.3 933.7 67.8C927.3 45.3 916.7 22.7 911.3 11.3L906 0L960 0L960 11.3C960 22.7 960 45.3 960 67.8C960 90.3 960 112.7 960 135.2C960 157.7 960 180.3 960 202.8C960 225.3 960 247.7 960 270.2C960 292.7 960 315.3 960 337.8C960 360.3 960 382.7 960 405.2C960 427.7 960 450.3 960 472.8C960 495.3 960 517.7 960 528.8L960 540Z" fill="#18223c"></path></svg>