<svg id="visual" viewBox="0 0 960 540" width="960" height="540" xmlns="http://www.w3.org/2000/svg" xmlns:xlink="http://www.w3.org/1999/xlink" version="1.1"><rect x="0" y="0" width="960" height="540" fill="#18223c"></rect><path d="M0 132L20 140.5C40 149 80 166 120 172.7C160 179.3 200 175.7 240 166.8C280 158 320 144 360 146.5C400 149 440 168 480 166.8C520 165.7 560 144.3 600 143C640 141.7 680 160.3 720 164.8C760 169.3 800 159.7 840 155.5C880 151.3 920 152.7 940 153.3L960 154L960 0L940 0C920 0 880 0 840 0C800 0 760 0 720 0C680 0 640 0 600 0C560 0 520 0 480 0C440 0 400 0 360 0C320 0 280 0 240 0C200 0 160 0 120 0C80 0 40 0 20 0L0 0Z" fill="#2c4060"></path><path d="M0 108L20 116.5C40 125 80 142 120 141.5C160 141 200 123 240 120.7C280 118.3 320 131.7 360 136C400 140.3 440 135.7 480 128.7C520 121.7 560 112.3 600 107.8C640 103.3 680 103.7 720 113.7C760 123.7 800 143.3 840 143.8C880 144.3 920 125.7 940 116.3L960 107L960 0L940 0C920 0 880 0 840 0C800 0 760 0 720 0C680 0 640 0 600 0C560 0 520 0 480 0C440 0 400 0 360 0C320 0 280 0 240 0C200 0 160 0 120 0C80 0 40 0 20 0L0 0Z" fill="#334a70"></path><path d="M0 121L20 122.7C40 124.3 80 127.7 120 130C160 132.3 200 133.7 240 127.8C280 122 320 109 360 107.7C400 106.3 440 116.7 480 117C520 117.3 560 107.7 600 101.2C640 94.7 680 91.3 720 97.2C760 103 800 118 840 124.8C880 131.7 920 130.3 940 129.7L960 129L960 0L940 0C920 0 880 0 840 0C800 0 760 0 720 0C680 0 640 0 600 0C560 0 520 0 480 0C440 0 400 0 360 0C320 0 280 0 240 0C200 0 160 0 120 0C80 0 40 0 20 0L0 0Z" fill="#3a5480"></path><path d="M0 108L20 103.7C40 99.3 80 90.7 120 83.7C160 76.7 200 71.3 240 72.3C280 73.3 320 80.7 360 80.5C400 80.3 440 72.7 480 71C520 69.3 560 73.7 600 80.5C640 87.3 680 96.7 720 99.5C760 102.3 800 98.7 840 93.8C880 89 920 83 940 80L960 77L960 0L940 0C920 0 880 0 840 0C800 0 760 0 720 0C680 0 640 0 600 0C560 0 520 0 480 0C440 0 400 0 360 0C320 0 280 0 240 0C200 0 160 0 120 0C80 0 40 0 20 0L0 0Z" fill="#415f90"></path><path d="M0 88L20 84.2C40 80.3 80 72.7 120 68.8C160 65 200 65 240 65.8C280 66.7 320 68.3 360 70.2C400 72 440 74 480 76.2C520 78.3 560 80.7 600 80.8C640 81 680 79 720 74C760 69 800 61 840 57.2C880 53.3 920 53.7 940 53.8L960 54L960 0L940 0C920 0 880 0 840 0C800 0 760 0 720 0C680 0 640 0 600 0C560 0 520 0 480 0C440 0 400 0 360 0C320 0 280 0 240 0C200 0 160 0 120 0C80 0 40 0 20 0L0 0Z" fill="#496aa1"></path><path d="M0 31L20 33C40 35 80 39 120 40.2C160 41.3 200 39.7 240 37.5C280 35.3 320 32.7 360 35.2C400 37.7 440 45.3 480 47.8C520 50.3 560 47.7 600 46.3C640 45 680 45 720 46.8C760 48.7 800 52.3 840 54.2C880 56 920 56 940 56L960 56L960 0L940 0C920 0 880 0 840 0C800 0 760 0 720 0C680 0 640 0 600 0C560 0 520 0 480 0C440 0 400 0 360 0C320 0 280 0 240 0C200 0 160 0 120 0C80 0 40 0 20 0L0 0Z" fill="#5175b2"></path><path d="M0 38L20 34.2C40 30.3 80 22.7 120 22.3C160 22 200 29 240 32.7C280 36.3 320 36.7 360 32.8C400 29 440 21 480 20C520 19 560 25 600 26.7C640 28.3 680 25.7 720 22.2C760 18.7 800 14.3 840 15.3C880 16.3 920 22.7 940 25.8L960 29L960 0L940 0C920 0 880 0 840 0C800 0 760 0 720 0C680 0 640 0 600 0C560 0 520 0 480 0C440 0 400 0 360 0C320 0 280 0 240 0C200 0 160 0 120 0C80 0 40 0 20 0L0 0Z" fill="#5980c3"></path></svg>