<svg id="visual" viewBox="0 0 960 540" width="960" height="540" xmlns="http://www.w3.org/2000/svg" xmlns:xlink="http://www.w3.org/1999/xlink" version="1.1"><rect x="0" y="0" width="960" height="540" fill="#5980c3"></rect><path d="M0 194L20 198C40 202 80 210 120 208.3C160 206.7 200 195.3 240 196.3C280 197.3 320 210.7 360 213.7C400 216.7 440 209.3 480 205C520 200.7 560 199.3 600 202.8C640 206.3 680 214.7 720 216C760 217.3 800 211.7 840 208.8C880 206 920 206 940 206L960 206L960 0L940 0C920 0 880 0 840 0C800 0 760 0 720 0C680 0 640 0 600 0C560 0 520 0 480 0C440 0 400 0 360 0C320 0 280 0 240 0C200 0 160 0 120 0C80 0 40 0 20 0L0 0Z" fill="#3a5496"></path><path d="M0 150L20 155C40 160 80 170 120 170.2C160 170.3 200 160.7 240 161.7C280 162.7 320 174.3 360 177.8C400 181.3 440 176.7 480 168.7C520 160.7 560 149.3 600 149.3C640 149.3 680 160.7 720 169.8C760 179 800 186 840 181.2C880 176.3 920 159.7 940 151.3L960 143L960 0L940 0C920 0 880 0 840 0C800 0 760 0 720 0C680 0 640 0 600 0C560 0 520 0 480 0C440 0 400 0 360 0C320 0 280 0 240 0C200 0 160 0 120 0C80 0 40 0 20 0L0 0Z" fill="#344b86"></path><path d="M0 162L20 157.5C40 153 80 144 120 140.8C160 137.7 200 140.3 240 141.7C280 143 320 143 360 147.8C400 152.7 440 162.3 480 167C520 171.7 560 171.3 600 163.5C640 155.7 680 140.3 720 136.7C760 133 800 141 840 140.2C880 139.3 920 129.7 940 124.8L960 120L960 0L940 0C920 0 880 0 840 0C800 0 760 0 720 0C680 0 640 0 600 0C560 0 520 0 480 0C440 0 400 0 360 0C320 0 280 0 240 0C200 0 160 0 120 0C80 0 40 0 20 0L0 0Z" fill="#2e4376"></path><path d="M0 140L20 140.7C40 141.3 80 142.7 120 137.8C160 133 200 122 240 120C280 118 320 125 360 123.8C400 122.7 440 113.3 480 106.7C520 100 560 96 600 92.8C640 89.7 680 87.3 720 91.5C760 95.7 800 106.3 840 115.2C880 124 920 131 940 134.5L960 138L960 0L940 0C920 0 880 0 840 0C800 0 760 0 720 0C680 0 640 0 600 0C560 0 520 0 480 0C440 0 400 0 360 0C320 0 280 0 240 0C200 0 160 0 120 0C80 0 40 0 20 0L0 0Z" fill="#283a67"></path><path d="M0 113L20 113.3C40 113.7 80 114.3 120 111.3C160 108.3 200 101.7 240 93C280 84.3 320 73.7 360 70.7C400 67.7 440 72.3 480 71.8C520 71.3 560 65.7 600 64.8C640 64 680 68 720 68.7C760 69.3 800 66.7 840 72C880 77.3 920 90.7 940 97.3L960 104L960 0L940 0C920 0 880 0 840 0C800 0 760 0 720 0C680 0 640 0 600 0C560 0 520 0 480 0C440 0 400 0 360 0C320 0 280 0 240 0C200 0 160 0 120 0C80 0 40 0 20 0L0 0Z" fill="#223258"></path><path d="M0 60L20 60.7C40 61.3 80 62.7 120 59.3C160 56 200 48 240 43.7C280 39.3 320 38.7 360 43.3C400 48 440 58 480 60.3C520 62.7 560 57.3 600 53.3C640 49.3 680 46.7 720 47.7C760 48.7 800 53.3 840 59.8C880 66.3 920 74.7 940 78.8L960 83L960 0L940 0C920 0 880 0 840 0C800 0 760 0 720 0C680 0 640 0 600 0C560 0 520 0 480 0C440 0 400 0 360 0C320 0 280 0 240 0C200 0 160 0 120 0C80 0 40 0 20 0L0 0Z" fill="#1d2a4a"></path><path d="M0 51L20 49.3C40 47.7 80 44.3 120 41.2C160 38 200 35 240 36C280 37 320 42 360 44.2C400 46.3 440 45.7 480 44.5C520 43.3 560 41.7 600 39.8C640 38 680 36 720 33.7C760 31.3 800 28.7 840 30.7C880 32.7 920 39.3 940 42.7L960 46L960 0L940 0C920 0 880 0 840 0C800 0 760 0 720 0C680 0 640 0 600 0C560 0 520 0 480 0C440 0 400 0 360 0C320 0 280 0 240 0C200 0 160 0 120 0C80 0 40 0 20 0L0 0Z" fill="#18223c"></path></svg>