<svg id="Layer_1" data-name="Layer 1" xmlns="http://www.w3.org/2000/svg" viewBox="0 0 500 413.46"><defs><style>.cls-1{fill:#18b4bb;}</style></defs><title>ns-shield-teal</title><path class="cls-1" d="M537.06,162.64c-8.29-19.08-30.86-40.69-90.27-41.26V69.88a13.11,13.11,0,0,0-13.11-13.11H131.2a13.11,13.11,0,0,0-13.11,13.11v175c-9.54,7.47-18.43,15-26.47,22.67C37.27,319,36.79,355,46,376.11c11.76,27,44.86,41.22,93.72,41.22a331.62,331.62,0,0,0,50.64-4.26c1.72,1.2,3.46,2.39,5.23,3.53l79.77,51.54a13.11,13.11,0,0,0,14.23,0l79.77-51.54A169.4,169.4,0,0,0,443,310l3.76-2.56C521.27,254.84,554.19,202.06,537.06,162.64ZM155,93.63h255v29.77c-48.68,5.38-105.42,21.42-161.88,46A657.12,657.12,0,0,0,155,218.74ZM79.78,361.41C75,350.5,82.31,327.12,117,294.26c.68-.64,1.41-1.28,2.1-1.93a169.4,169.4,0,0,0,36,87.61C110.4,382.8,85,373.48,79.78,361.41Zm269.54,24.22-66.87,43.21-66.87-43.21A132,132,0,0,1,155,274.31V263.22c30.46-21.85,67.4-42.5,107.78-60.05,51.61-22.43,103.07-37.3,147.18-42.69V274.31A132,132,0,0,1,349.31,385.63Zm97.47-124.31V158.25c35.31.42,52.37,9.65,56.47,19.08C509.61,192,493.9,223.44,446.78,261.32Z" transform="translate(-41.5 -56.77)"/></svg>